<?xml version="1.0" encoding="utf-8"?>
<!-- Generator: Adobe Illustrator 25.1.0, SVG Export Plug-In . SVG Version: 6.00 Build 0)  -->
<svg version="1.1" xmlns="http://www.w3.org/2000/svg" xmlns:xlink="http://www.w3.org/1999/xlink" x="0px" y="0px"
	 viewBox="0 0 200 200" style="enable-background:new 0 0 200 200;" xml:space="preserve">
<style type="text/css">
	.st0{display:none;}
	.st1{display:inline;fill:#231F20;}
	.st2{fill:url(#SVGID_1_);}
	.st3{opacity:0.35;}
	.st4{fill:#9370DB;}
	.st5{opacity:0.8;}
	.st6{fill:none;stroke:#A88FEA;stroke-width:1.2;stroke-linecap:round;stroke-linejoin:round;}
	.st7{opacity:0.3;}
	.st8{fill:#FFFFFF;}
	.st9{display:none;opacity:0.2;fill:#FFFFFF;enable-background:new    ;}
	.st10{fill:none;stroke:#4B0082;}
	.st11{filter:url(#glow);}
	.st12{fill:#E0FFFF;}
</style>
<filter  height="200%" id="glow" width="200%" x="-50%" y="-50%">
	<feGaussianBlur  result="coloredBlur" stdDeviation="1.5"></feGaussianBlur>
	<feMerge>
		<feMergeNode  in="coloredBlur"></feMergeNode>
		<feMergeNode  in="SourceGraphic"></feMergeNode>
	</feMerge>
</filter>
<g id="Layer_2" class="st0">
	<rect x="-4" y="-5.3" class="st1" width="210.4" height="212.4"/>
</g>
<g id="Layer_1">
	
		<radialGradient id="SVGID_1_" cx="100" cy="102" r="90" gradientTransform="matrix(1 0 0 -1 0 202)" gradientUnits="userSpaceOnUse">
		<stop  offset="0" style="stop-color:#00C6FF"/>
		<stop  offset="0.55" style="stop-color:#0F52BA"/>
		<stop  offset="1" style="stop-color:#7B2CBF"/>
	</radialGradient>
	<path class="st2" d="M70,25h60l55,55v40l-85,65l-85-65V80L70,25z"/>
	<g class="st3">
		<path class="st4" d="M100,185l45-90c-15,11.7-30,23.3-45,35c-15-11.7-30-23.3-45-35L100,185z"/>
		<polygon class="st4" points="185,120 145,95 185,80 		"/>
		<polygon class="st4" points="15,120 55,95 15,80 		"/>
	</g>
	<g class="st5">
		<polygon class="st6" points="80,65 120,65 145,95 100,130 55,95 		"/>
		<line class="st6" x1="70" y1="25" x2="80" y2="65"/>
		<line class="st6" x1="130" y1="25" x2="120" y2="65"/>
		<line class="st6" x1="185" y1="80" x2="145" y2="95"/>
		<line class="st6" x1="185" y1="120" x2="145" y2="95"/>
		<line class="st6" x1="15" y1="80" x2="55" y2="95"/>
		<line class="st6" x1="15" y1="120" x2="55" y2="95"/>
		<line class="st6" x1="100" y1="185" x2="100" y2="130"/>
	</g>
	<g class="st7">
		<path class="st8" d="M70,25h60l-10,40H80L70,25z"/>
		<path class="st9" d="M15,80l55-55l10,40L55,95L15,80z"/>
	</g>
	<path class="st10" d="M70,25h60l55,55v40l-85,65l-85-65V80L70,25z"/>
	<g class="st11">
		<circle class="st12" cx="80" cy="65" r="3.5"/>
		<circle class="st12" cx="120" cy="65" r="3.5"/>
		<circle class="st12" cx="145" cy="95" r="3.5"/>
		<circle class="st12" cx="55" cy="95" r="3.5"/>
		<circle class="st12" cx="100" cy="130" r="3.5"/>
		<circle class="st8" cx="100" cy="185" r="3.5"/>
	</g>
</g>
</svg>