<svg xmlns="http://www.w3.org/2000/svg" viewBox="0 0 2432.68 980.43"><defs><style>.cls-1{fill:#182a53;}.cls-2{fill:#ed1c24;}.cls-3,.cls-5,.cls-8{fill:#fff;}.cls-3{stroke:#fff;}.cls-3,.cls-7,.cls-8{stroke-miterlimit:10;}.cls-3,.cls-7{stroke-width:15px;}.cls-4{font-size:299px;font-family:CenturyGothic-Bold, Century Gothic;font-weight:700;}.cls-4,.cls-9{fill:#231f20;}.cls-6{fill:#ce2029;}.cls-7{fill:none;}.cls-7,.cls-8{stroke:#231f20;}.cls-8{stroke-width:11.47px;}</style></defs><g id="Layer_1" data-name="Layer 1"><path class="cls-1" d="M1827.76,112.7a102,102,0,0,1,102,102V768.49a102,102,0,0,1-102,102H166.9a102,102,0,0,1-102-102V214.7a102,102,0,0,1,102-102H1827.76m0-30H166.9a132,132,0,0,0-132,132V768.49a132,132,0,0,0,132,132H1827.76a132,132,0,0,0,132-132V214.7a132,132,0,0,0-132-132Z"/><path class="cls-2" d="M1827.76,142.7a72.08,72.08,0,0,1,72,72V768.49a72.08,72.08,0,0,1-72,72H166.9a72.08,72.08,0,0,1-72-72V214.7a72.08,72.08,0,0,1,72-72H1827.76m0-30H166.9a102,102,0,0,0-102,102V768.49a102,102,0,0,0,102,102H1827.76a102,102,0,0,0,102-102V214.7a102,102,0,0,0-102-102Z"/><rect class="cls-3" x="64.9" y="112.7" width="1864.85" height="757.79" rx="102"/><text class="cls-4" transform="translate(144.97 419.75)">MADE IN</text><text class="cls-4" transform="translate(144.97 419.75)">MADE IN</text><text class="cls-4" transform="translate(153.04 748.96)">FRANCE</text></g><g id="Layer_2" data-name="Layer 2"><path class="cls-5" d="M2119.76,63.05v857.1c-9.8,4.4-19.8,8.4-30,12.1a470.35,470.35,0,0,1-320,0c-10.2-3.7-20.2-7.7-30-12.1V63.05c9.8-4.4,19.8-8.4,30-12.1a470.35,470.35,0,0,1,320,0C2100,54.65,2110,58.65,2119.76,63.05Z"/><path class="cls-1" d="M1769.76,51v881.3c-10.2-3.7-20.2-7.7-30-12.1-164.2-72.9-278.7-237.4-278.7-428.6s114.5-355.7,278.7-428.5C1749.56,58.65,1759.56,54.65,1769.76,51Z"/><path class="cls-6" d="M2398.46,491.55c0,191.2-114.5,355.7-278.7,428.5-9.8,4.4-19.8,8.4-30,12.1V51c10.2,3.7,20.2,7.7,30,12.1C2284,135.85,2398.46,300.35,2398.46,491.55Z"/><path class="cls-7" d="M2398.46,491.55c0,191.2-114.5,355.7-278.7,428.5-9.8,4.4-19.8,8.4-30,12.1a470.35,470.35,0,0,1-320,0c-10.2-3.7-20.2-7.7-30-12.1-164.2-72.8-278.7-237.3-278.7-428.5s114.5-355.7,278.7-428.5c9.8-4.4,19.8-8.4,30-12.1a470.35,470.35,0,0,1,320,0c10.2,3.7,20.2,7.7,30,12.1C2284,135.85,2398.46,300.35,2398.46,491.55Z"/><circle class="cls-8" cx="1929.76" cy="491.55" r="358.3"/><path class="cls-9" d="M2110.68,660.43a231.8,231.8,0,0,0,90.71-108.85c-3.55,28.17-13.51,73.7-44.48,118.81C2148.62,682.46,2131.44,707,2101,729c-30.1,21.76-60.15,31.58-71.91,35.32a284.44,284.44,0,0,1-85.28,12.81q-78.31,0-145.29-38.27t-105-104.19q-38.05-65.91-38.06-143.55,0-78.37,38.25-145.75T1798,240.64q66.06-37.35,145.11-37.36,109.8,0,185.37,70.75t75.58,164.6q0,68.91-31.66,118.58t-86.19,77.53Q2044.5,656,2016.31,656q-21.22,0-34-11.34-9.87-8.05-10.61-27.82-32.21,35.5-78.32,35.5-52,0-86.55-37.05t-34.59-98.68q0-67.87,42.44-121.24T1927.31,342q28.9,0,51.58,11.89t38.78,36a82,82,0,0,0-7.68-28.83c-10.44-21.89-27.9-33-35.38-37.19,42,10,62,29.39,71.66,41.73C2093.6,426.21,2070.36,546,2061,565.5c0,0-6.28,13-3.66,25.69a13.27,13.27,0,0,0,3.84,7.52,12.9,12.9,0,0,0,9,3.49q12.81,0,34.58-17.78t35.5-51.35q13.72-33.56,13.73-73.54,0-59.4-26-104.89t-74.66-71.51q-48.68-26.06-111.62-26.05-66.24,0-118.94,29.51t-83.08,83.58q-30.39,54.06-30.38,118.94,0,66.36,30.75,120.23t86,83.95q55.26,30,123.7,30.05a197.38,197.38,0,0,0,55.33-7.71,200.93,200.93,0,0,0,20.79-7.37C2071.87,689.29,2110.68,660.43,2110.68,660.43ZM1923,575.12q31.85,0,52.71-26.29t20.86-59.4q0-28.68-17-46.89t-42.64-18.2q-30,0-52.33,24.82t-22.33,60.13q0,29.79,16.84,47.81T1923,575.12Z"/></g></svg>